<svg id="Capa_1" data-name="Capa 1" xmlns="http://www.w3.org/2000/svg" viewBox="0 0 212 212"><defs><style>.cls-1{fill:none;stroke:#000;stroke-linejoin:round;stroke-width:9px;}</style></defs><circle class="cls-1" cx="106" cy="106" r="101.5"/><path class="cls-1" d="M693.68,647.73V613.06l68,0,29,0-97.08-.06L681.32,601.6V589.12H801.8v13.44l-11,10.56q0,17.75,0,35.48" transform="translate(-636 -453)"/><line class="cls-1" x1="56.68" y1="187.24" x2="124.72" y2="160.1"/><path class="cls-1" d="M720.54,658.23" transform="translate(-636 -453)"/><line class="cls-1" x1="153.74" y1="175.9" x2="84.54" y2="205.23"/><path class="cls-1" d="M698.8,589.12V518.5l85-.3-100.8.36,58.92-36h0l56.28,34.2,2.64,1.44h-17v70.92" transform="translate(-636 -453)"/><circle class="cls-1" cx="105.13" cy="100.43" r="18.59"/><line class="cls-1" x1="105.13" y1="81.84" x2="105.13" y2="65.35"/><path class="cls-1" d="M741.13,572v17.1" transform="translate(-636 -453)"/></svg>