<svg id="Capa_1" data-name="Capa 1" xmlns="http://www.w3.org/2000/svg" viewBox="0 0 267.13 320.7"><defs><style>.cls-1{fill:#08a042;stroke:#08a042;stroke-linecap:round;stroke-linejoin:round;}</style></defs><path class="cls-1" d="M241.64,484.56c.68-3.07,1.37-6.14,2.05-9.21l14.85-1.06-.27-7.69,19-.92-22.76-2a5.42,5.42,0,0,1,4.27-3.78l-4.37-6.16,22.2-.13c.14-2,.32-3.42.46-4.34a2.26,2.26,0,0,1,.3-.9c.7-1.1,2.37-1.19,3.08-1.19a14,14,0,0,1,.89,2.22,13.43,13.43,0,0,1,.57,3.94l19.34.27.27,5-2.39,1.06,2.39,4.24-4,12.46c1.63.33,3.39.6,5.27.79a53.7,53.7,0,0,0,10.93,0q.85,4.43,1.69,8.85l6.46.89q1.21,4.94,2.42,9.88l4.54,1.06L332.21,509l6.43,1.09Q340.32,516,342,522l6.36.14q1,6.42,2.12,12.85l7.15.53,3.84,11.76,5.74,3.59c42.62-1.33,74.21-6.33,98-27.54A91.08,91.08,0,0,0,480.89,505a103.28,103.28,0,0,0,10.51-25.25c-.65-2.7-1.07-5-1.33-6.82a39.91,39.91,0,0,0-2.46-9.37c-.69-1.74-1.7-4.26-2.48-4.14-1.28.2-1.14,7.23-1.12,7.89a46.89,46.89,0,0,0,1,8.27,90.1,90.1,0,0,0,2.79,10.74l-11,1.59a130.79,130.79,0,0,1-1.2-17.63c0-4.15.21-8.05.54-11.66a8.16,8.16,0,0,1,1.2-4.25c1.63-2.59,4.3-3.35,6.48-4,2-.57,5.66-1.6,8.13.38a5.07,5.07,0,0,1,1.34,1.64c.54.87,1.07,1.79,1.59,2.73a96.81,96.81,0,0,0-.59-13c-.87-7.54-2.29-19-9.14-31.53-1-1.82-2-3.54-3.12-5.18a15.81,15.81,0,0,1-5.5,4.38c-6.36,2.65-16,2.92-16,2.92a29.9,29.9,0,0,1-14.91-1.2c-6.89-2.49-8.93-6.47-13.32-5.76-2.76.45-5.27,3.67-10.33,9.94-1.46,1.8-2.76,3.39-5.37,6.56-2.35,2.86-2.77,3.35-3.58,4-2.07,1.61-6.18,3.75-8.94,2.59-6.46-2.73-5.51-21.55-1.33-23a3.16,3.16,0,0,1,2.92.52c.25.25.56.69.7,2.89.17,2.94-.24,4.71.49,5.07a.81.81,0,0,0,.6,0c1.18-.5.17-3.77,1.66-7a2.24,2.24,0,0,1,1.12-1.26,2.27,2.27,0,0,1,2.19.4c1.74,1.49-.23,5.5,1.19,6.36a1.58,1.58,0,0,0,1.33,0,56.42,56.42,0,0,0,7.71-7.09,44.65,44.65,0,0,0,5.17-7.45,26.11,26.11,0,0,0,2.88-6.07,21.09,21.09,0,0,0,.8-5.66c.17-6.05-.4-8.69-.5-12.92-.16-7.32-.25-11,1.79-13.58,2.31-2.95,6.16-4.13,6.86-8.09a8.81,8.81,0,0,0,.1-1.89c-.18-2.84-1.77-4.42-3.08-6.55a65.32,65.32,0,0,1-2.69-7.46c-1.67-5-1.67-6.06-2.88-8.25a20.94,20.94,0,0,0-3.44-4.57L409,324.55a4.46,4.46,0,0,1-.1-2.28,4.63,4.63,0,0,1,1.19-2.19l6.66-10.37L431.86,301,448,308.12s.53,1.59,8-2.12,14.84.27,14.84.27q6.13,7.51,12.26,15c0,7.16.19,14.45.43,21.82A74,74,0,0,0,487,332.5c.1-.45.19-.9.28-1.35a5.06,5.06,0,0,1-.41-.37,3.41,3.41,0,0,1-1.13-2.85,3,3,0,0,1,1.39-1.92,3,3,0,0,1,1-.33c.19-1.7.29-3.3.34-4.75a3.26,3.26,0,0,1-1.78-.75,2,2,0,0,1-.66-1.39,2.11,2.11,0,0,1,.73-1.46,3.18,3.18,0,0,1,1.7-.86c0-1-.08-1.81-.11-2.52s-.14-2.14-.4-4.29a9.64,9.64,0,0,1-1.53,0,7.31,7.31,0,0,1-2.51-.73,3.84,3.84,0,0,1-.2-2.11,4.69,4.69,0,0,1,3.29-3.27c-2.5-13.27-9.59-35.85-29.66-50.54-12-8.76-25.72-12.69-34.45-15.11-23.09-6.39-34.24-4.53-67.32-6.09-9.74-.46-19.48-.63-29.23-.64,1.29,3.44,2.82,9.61,3.79,21.84.16,2.06.36,4.92.8,9.34.21,2.24.43,4.42.79,7.36.5,4,.7,4.82,1,7.75.74,7.37.07,8.46-.59,8.94-1.36,1-3.55.1-3.78,0-3-1.26-4.81-5.27-6.36-19.68-.58-5.41-1.05-11.66-2.19-22.26-.29-2.72-.94-8.21-3.89-12.49-2,.7-4,1.44-6,2.22,0,1.57.11,3.32.18,5.1.42,10,.74,17.77,3.58,28.83.68,2.62,3.14,11.83.6,15.5a4.54,4.54,0,0,1-2.59,2,4.91,4.91,0,0,1-3.77-1,6.69,6.69,0,0,1-1.73-1.93c-4.23-7.38-3.24-37.62-3.24-37.62,0-3.08-.08-5.66,0-8q-5.44,2.41-10.68,5.2c1.23,9.77,1.67,17.49,1.91,21.44.31,4.92.84,12.09,1.79,20.87a8,8,0,0,1-4.77-.79c-3.73-2-4.33-7.12-5.17-15.11-1.13-10.86-1.72-17-2.38-21.52-3,1.83-6,3.77-8.86,5.78.06.34.1.56.11.64.72,3.89,1.44,12,1.4,30.61a6.51,6.51,0,0,1-4-.4,7.05,7.05,0,0,1-2.78-2.59c-1.86-2.74-1.22-5.13-1.59-10.73a85.08,85.08,0,0,0-1.39-9.94c-.09-.46-.17-.89-.25-1.29q-2.34,1.86-4.61,3.8c.89,10.28,1.45,18.73,1.68,22.34a8.9,8.9,0,0,1-5.38-.91c-2.89-1.6-4-4.74-4.56-6.84a40.69,40.69,0,0,1-1.19-5.93q-3.36,3.33-6.54,6.83c0,1.27,0,2.37,0,3.27-1.4,1.57-3.41,3.35-5.37,3A170.34,170.34,0,0,0,230,298.69c.39,11.05.81,23.38,1.25,36.73q1.22,26.68,1.32,55.12c.08,35.72-2.18,52.66-3.81,94.44q2.67,4.14,5.56,8.09.49-4.11,1-8.21Zm228.82,2.26c-1.41,1.65-5.1,1.74-6.9.22-1.5-1.26-1.45-5.23-1.29-13.11a22.29,22.29,0,0,0-.8-6.37c-1-3.46-2-4-2.48-4.17a3.5,3.5,0,0,0-3.38.8c-.92.84-1.29,2.2-.5,10,.4,3.91.6,5.86.7,6.36.62,3.15,1.43,5.09.4,6.66a3.93,3.93,0,0,1-2.09,1.49,3.16,3.16,0,0,1-2,.07c-2.42-.85-2.89-5.31-3.26-12.69-.9-17.75.41-19.45,1.49-20.37,2.27-1.93,5.47-2.08,9.74-2.29,3.88-.19,6-.29,7.75,1,2.74,2,2.48,6,2.59,14.51,0,3.8.18,9.58.59,16.79A2.73,2.73,0,0,1,470.46,486.82Zm-11.67-55.68a3,3,0,0,1,0-.69,3,3,0,0,1,.2-.7,3.51,3.51,0,0,1,1.64-1.67,4.08,4.08,0,0,1,3.43.38c2.55,1.54.67,5,2.46,13.36.4,1.84,1,3.94-.18,5.37a4,4,0,0,1-2.47,1.26c-3.93.84-11.87,1-14-3.4a8.3,8.3,0,0,1-.49-1.59,17.8,17.8,0,0,1-.37-6.8c.41-3.17.94-7.28,3.45-8.25,1-.39,3-.53,3.71.43a1.41,1.41,0,0,1,.19.36c.44,3.57.8,6.21.92,7.21a1.54,1.54,0,0,0,.48,1c.2.17.64.41.93.27C459.72,437.24,458.83,432.59,458.79,431.14Zm26.2-5.22c1.5.55,1.6,2.69,2.57,7.81,1.35,7.13,2.14,8.28,1.09,9.93-1.23,1.95-3.74,2.58-5.36,3a8.7,8.7,0,0,1-5.27.1c-2.61-.94-3.74-3.36-5.22-6.51a21.22,21.22,0,0,1-1.59-9.68,2.81,2.81,0,0,1,.6-1.69c1.24-1.45,4-.82,4.47-.7l.35.35c2,5.22,3.38,8.83,3.46,9.21a.35.35,0,0,0,.13.22c.21.13.61-.14.73-.24.53-.45.34-1.55.05-3-.35-1.79-.52-2.68-.64-3.13-.78-2.86-1.39-3.68-.9-4.42.26-.39.76-.53,1.74-.8C482.56,426,484,425.56,485,425.92Zm-48.89-8.61a3.54,3.54,0,0,1,1.06-1.72,4,4,0,0,1,2.46-.88c3.76-.2,13.91,1.35,14.1,1.38a65.57,65.57,0,0,0,12.62.59c2.38-.13,4.77-.11,7.16-.2,3.94-.14,5.56-.25,7.05.9,1,.77,2.26,2.33,1.93,3.91a3.88,3.88,0,0,1-1.73,2.25,7.91,7.91,0,0,1-1.72.66s-30.74-.53-37.63-2.12S436.1,417.31,436.1,417.31Zm-6.23,19.48A24.56,24.56,0,0,1,431,432.3c1-2.9,1.75-4.85,3.51-5.48,1.53-.55,3.62,0,4.27,1.19.46.83,0,1.48-.86,4.41-.62,2.23-1.65,5.95-.53,6.62,1.33.8,2.26-2.38,2.26-2.38.57-1.8,1-3.16,1.25-3.85a1.75,1.75,0,0,1,.37-.63,1.68,1.68,0,0,1,.46-.33c2.76-1.32,5.18-2.93,6-2.15.34.33.25.95.2,1.29-1.32,8.6-.85,10.68-3.25,13.22a7.51,7.51,0,0,1-2.32,1.79,8.67,8.67,0,0,1-6.36.1,8.12,8.12,0,0,1-4.56-2.83C429.7,440.78,429.87,436.79,429.87,436.79Zm-10.24,37.63c3.21-11.59,3.58-13.44,5.77-17.69,1.93-3.76,3-4.92,4.47-5.56,2.09-.91,4.16-.41,6.66.2,2.34.56,5.55,1.34,6.76,3.82a5.8,5.8,0,0,1,.29,3.73c-.81,4.16-1.55,13.53-2.28,27.58a3.84,3.84,0,0,1-1.78,2.77c-1.69.81-3.64-.67-4.09-.93-5.36-3.18-3.57-9.94-3.57-9.94,1.92-9.23,3.28-14.53,4.22-16.85.21-.51,1-2.25.25-3a1.54,1.54,0,0,0-1.44-.35,2.71,2.71,0,0,0-1.64,1.74c-1.19,2.88-5.47,22.07-5.47,22.07s-1.39,4.07-6.06.79a6.75,6.75,0,0,1-2.09-2.58A8.38,8.38,0,0,1,419.63,474.42ZM317.1,377.62a1.56,1.56,0,0,1-.92.2c-13-.73-26.09-1-39.09-2.05-7.12-.58-6.46-.07-15.37-.8-8.3-.67-15.06-1.62-19.48-2.31l1-6.17L319,372.06a36.34,36.34,0,0,1-1.19,4.7A1.68,1.68,0,0,1,317.1,377.62Zm-41.21-32c-4.2,7-16.47,11-25.17,6.36-1.22-.64-7-3.69-7.56-9.4-.66-6.34,5.53-10.78,6.23-11.27a16.46,16.46,0,0,1,7.82-2.65c1.83-.24,9.18-1.21,15.24,3.45,1.57,1.2,4.58,3.52,5,7.29A9.75,9.75,0,0,1,275.89,345.62Zm31.47,14.91,11.53,7.82c-4.71-.27-18.85-1.1-33.65-2.32-3.91-.32-11.58-1-19.09-1.72-2.91-.3-3.42-.38-5.3-.53-4.09-.35-6.87-.43-10.93-1-4.81-.67-5.78-1.24-6.29-2.12-.91-1.55-.14-3.61.33-4.63q8,.27,16.12.7C276.39,357.59,292.16,358.89,307.36,360.53Zm94.48,76.33a30.57,30.57,0,0,1,2.69,14.7A28.88,28.88,0,0,1,401,465.88a25.53,25.53,0,0,1-6.06,7.12c-4.94,3.95-10.3,4.66-15.62,5.68-8.2,1.57-16.36,2.18-29.31,2-6.51-.11-15.22-.44-25.54-1.38a6.92,6.92,0,0,1-3-1.67,7.53,7.53,0,0,1-2-4.59c-1.19-8.62-1.26-11.64-1.26-11.64,0-1.9-.12-6.41,0-12.52.06-2.67.14-5,.22-7,.32-7.45.53-6.14.52-9.1a75.67,75.67,0,0,1,.82-9.68,2.74,2.74,0,0,1,.89-2c1.52-1.84,4.36-1.73,5.34-1.65,7.72-.3,18.47-.67,31.7-.89,5.53-.09,15.54-.19,26.24,3.08a29.46,29.46,0,0,1,8.94,4.27A28.49,28.49,0,0,1,401.84,436.86ZM376.6,383c.11-2.91.58-4.71,1.72-5.17a1.89,1.89,0,0,1,1.33,0c2.86,1.22.47,10.81,3.31,12.33a1,1,0,0,0,.8.13c.89-.32.73-2.53.79-4.64.08-2.8.6-8.31,2.12-8.61.71-.14,1.51.88,1.86,1.32a5.42,5.42,0,0,1,1.06,2.92,55.4,55.4,0,0,1,.26,7.68c-.45,7.37-.08,8-1.06,9.41-.43.64-2.23,3.11-4.9,3.05-2.47-.06-4.88-2.27-5.7-5.57A44.22,44.22,0,0,1,376.6,383Zm30.88,6.76c-.18,4.86-.29,7.78-2.52,9.41s-5.42,1.07-6.23.92a8,8,0,0,1-4.37-2c-1-1-1.76-2.48-1.73-9.15,0-5.89.05-10.77,1.91-11.32a2.54,2.54,0,0,1,2.33,1c.63.76.57,1.65.53,3.05-.16,5.73.27,6.58.8,7a1.91,1.91,0,0,0,1.85.4c1.1-.53.64-2.71,1.46-7.42.31-1.77.64-2.95,1.59-3.45a2.45,2.45,0,0,1,1.81-.14C407.87,379.08,407.56,387.38,407.48,389.75ZM427,392.8a13.13,13.13,0,0,1-4.1,4.37c-.85.56-6,4-9.56,1.58-2.31-1.57-2.59-4.7-2.63-5.56a85.37,85.37,0,0,1-.4-8.61c0-5.92.65-7.2,1.59-7.68a3,3,0,0,1,2.91.26c3,2,.57,8.44,3.05,9.67a2.77,2.77,0,0,0,2.78-.44c2.54-2.11-.87-8.77,1.59-10.55a2.36,2.36,0,0,1,1.3-.45c1.47,0,2.5,1.5,2.68,1.77C426.61,378,430.74,386.09,427,392.8Zm-26.63-52.87c-1.24,5.55-2.43,12-1.19,12.45.17.06.38,0,1.19-.66a70.38,70.38,0,0,0,6.86-7.29c.09-.1.27-.31.43-.26.41.12.19,1.95.13,2.51a9.85,9.85,0,0,1-.4,2.12c-1.17,3.67-4.58,6.54-3.84,7.82.11.19.37.44,1.06.53,4.45.15,8.14.49,10.83.8,10.59,1.21,12.16,2.7,12.62,4a3.22,3.22,0,0,1-.39,2.92c-.72.93-2.07,1.2-6.63.79-4.29-.38-6.3-.91-10.73-1.46-3.5-.43-3.06-.2-5.17-.53-5.51-.85-8.41-1.3-10.47-3.31-4.31-4.21-1.94-12.37-1.46-14,.92-3.15,3.18-7.94,5.39-7.75C399.67,338.63,400.32,339.93,400.32,339.93ZM319.05,298c.06-.07.1-.15.17-.22a3.19,3.19,0,0,1,2.06-.86,222.13,222.13,0,0,1,30.48-1.4c19.85.47,30.88,3.41,37.3,9a27.78,27.78,0,0,1,5.5,6.75,25.23,25.23,0,0,1,2.91,12.86A23.1,23.1,0,0,1,385.74,345a37.91,37.91,0,0,1-14,5.16c-7.34,1.43-14.64,2-26.23,1.79-4.71-.08-10.72-.29-17.71-.82-1.4,1.82-2.47,3.14-3,3.74-.38.41-.76.74-.76.74a11.7,11.7,0,0,1-1.55,1.12,19.71,19.71,0,0,1-14.25,2c-4.58-1.1-13.05-4.89-13.39-11.26-.26-4.92,4.45-8.61,5.3-9.28,5.16-4,11.84-3.84,16.95-2.77,0-.69,0-1,0-1,0-1.47-.09-4.67,0-9l-54.75-.73c-4.89-.46-8.62-.68-11.27-.8-1.94-.08-4.21-.15-5.3-1.72a3.17,3.17,0,0,1-.4-2.92c1-2.24,5.85-2.05,7.69-2,17.44.63,35-.84,52.34,1.32a117.71,117.71,0,0,0,11.82,1c0-1,.07-2,.11-2.88q0-.74.06-1.35c-10.87-.26-42.25-1-55.19-1.23-15.77-.27-17.62-1.59-17.62-1.59v-5.7q21.35-.37,44.06.06,14.88.31,29.16,1c0-.77.08-2.36.28-4.49-25.61-1.43-27.26-1.46-27.26-1.46-10.73-.25-21.5-1.75-32.19-.8-3.86.34-12.24,1.28-15.71-3.38a7.71,7.71,0,0,1-1.26-2.72Z" transform="translate(-228.25 -230.66)"/><path class="cls-1" d="M457.7,365.9c-8,3.59-10.58,14.63-7.42,20.54.32.6,2.48,4.48,6.55,5.23a6.07,6.07,0,0,0,4.38-.6,6.14,6.14,0,0,0,2.51-4.79c-.66-.49-1.32-1-2-1.4A4.61,4.61,0,0,1,460,386.7a5,5,0,0,1-3.91.13,5.67,5.67,0,0,1-3-3.91,8.12,8.12,0,0,1,.06-4.43c.21-.83,1.28-5.14,5.17-7a10.14,10.14,0,0,1,6.23-.46l.21,0,2.51-2.62c.69-.73,1.3-1.41,1.91-2.15A13.57,13.57,0,0,0,457.7,365.9Z" transform="translate(-228.25 -230.66)"/><path class="cls-1" d="M471.11,395.27a13.15,13.15,0,0,1-3.54,2.16,19.39,19.39,0,0,1-13.15,1.72,14.42,14.42,0,0,1-8.25-4.9c-1.47-1.89-1.94-3.7-2.65-6.42a36.47,36.47,0,0,1-1-10.07c.13-4.88.22-8.28,2.26-11.86a17.9,17.9,0,0,1,5-5.44c5-3.9,7.88-3,16.69-7.28,3-1.45,6.41-3.16,7.95-6.63.09-.2,1.05-2.4.4-2.91,0,0-.82-.66-5.43,2.78h0a50.88,50.88,0,0,1-6.1,3.58c-7.09,3.51-9.43,2.54-15.1,6a28.47,28.47,0,0,0-7.82,7,9.84,9.84,0,0,0-2.26,4c-.41,1.61-.16,2.68,0,4.9.11,1.41,0,.81,0,6.36,0,5.94,0,8.91.14,9.81a21.93,21.93,0,0,0,5.7,12.58,21.12,21.12,0,0,0,11.39,6,23.27,23.27,0,0,0,17.09-3.71,20.69,20.69,0,0,0,4.6-4.08c-1.49-1.79-3-3.45-4.53-5A11.46,11.46,0,0,1,471.11,395.27Z" transform="translate(-228.25 -230.66)"/><path class="cls-1" d="M318.16,345c-.34-2.53-.57-4.51-.74-6.06a18.18,18.18,0,0,0-2.3-.37c-2.52-.23-6.64-.61-9.54,2.12a7.37,7.37,0,0,0,.53,11.79A11,11,0,0,0,313,355a11.35,11.35,0,0,0,5.56-1.32,10.86,10.86,0,0,0,3.55-3.16A5.84,5.84,0,0,1,320,349.2,7,7,0,0,1,318.16,345Zm-3.57,4.17a4.56,4.56,0,0,1-5.44-.66,3.91,3.91,0,0,1,0-3.58,3.2,3.2,0,0,1,1.61-1.24c2-.72,5,.3,5.42,2.3A3.42,3.42,0,0,1,314.59,349.2Z" transform="translate(-228.25 -230.66)"/><path class="cls-1" d="M268.2,335.94a13.16,13.16,0,0,0-5.31-1.85c-1.91-.25-5.57-.72-8.61,1.61-.51.39-3.44,2.65-3.3,6.1a6.8,6.8,0,0,0,1.87,4.24c2.26,2.44,5.55,2.48,7.42,2.5a12.45,12.45,0,0,0,8-2.4c.93-.72,4.17-3.22,3.7-6.1C271.59,338.09,269.73,336.91,268.2,335.94ZM263,343.11c-1.59.89-4.27,1.14-5.43-.4a2.9,2.9,0,0,1-.4-2.65,3.49,3.49,0,0,1,2.39-2,4.34,4.34,0,0,1,3.44.27c.29.15,1.93,1.07,1.87,2.48S263.5,342.85,263,343.11Z" transform="translate(-228.25 -230.66)"/><path class="cls-1" d="M471.94,314.68c-5.79-3.48-14.17-2.1-19.15,2.72-1,1-5.86,6-4.5,11.79.94,4,4.23,6.21,5.36,7,5.41,3.57,11.42,2,12.79,1.66a14.79,14.79,0,0,0,8.68-5.44c.49-.67,4.1-5.81,2.06-11.53A12.16,12.16,0,0,0,471.94,314.68Zm-3.11,15.84a7.34,7.34,0,0,1-4.64,1.94,7.75,7.75,0,0,1-6.29-2.54,6.76,6.76,0,0,1-1.63-4.77,7.18,7.18,0,0,1,4.81-6,7.76,7.76,0,0,1,7.95,1.39,6.59,6.59,0,0,1,1.78,3.38A7.16,7.16,0,0,1,468.83,330.52Z" transform="translate(-228.25 -230.66)"/></svg>