<svg xmlns="http://www.w3.org/2000/svg" viewBox="0 0 90.71 90.71"><defs><style>.cls-1{fill:#009939;}.cls-2{fill:#e0e0e0;}</style></defs><g id="Capa_2" data-name="Capa 2"><g id="Capa_2-2" data-name="Capa 2"><rect class="cls-1" width="90.71" height="90.71" rx="20.21"/><path class="cls-2" d="M73.35,56.11a17.11,17.11,0,0,0-1.92-6.62c-.21-.38-.43-.75-.65-1.09a3.22,3.22,0,0,1-1.16.92,11.29,11.29,0,0,1-3.36.61,6.23,6.23,0,0,1-3.14-.25c-1.44-.52-1.87-1.36-2.79-1.21-.58.09-1.11.77-2.17,2.09L57,51.94a5.09,5.09,0,0,1-.75.83c-.44.34-1.3.79-1.88.54-1.36-.57-1.16-4.52-.28-4.83a.68.68,0,0,1,.61.12c.05,0,.12.14.15.6,0,.62-.05,1,.1,1.07a.26.26,0,0,0,.13,0c.25-.11,0-.79.35-1.47a.42.42,0,0,1,.69-.18c.37.32,0,1.16.25,1.34a.34.34,0,0,0,.28,0,11.92,11.92,0,0,0,1.62-1.49,9.3,9.3,0,0,0,1.09-1.56,5.17,5.17,0,0,0,.6-1.28,4.4,4.4,0,0,0,.17-1.19c0-1.27-.08-1.82-.1-2.71,0-1.54-.06-2.31.37-2.85s1.29-.87,1.44-1.7a1.51,1.51,0,0,0,0-.4,2.89,2.89,0,0,0-.64-1.38,13.52,13.52,0,0,1-.57-1.56,10.53,10.53,0,0,0-.6-1.74,4.89,4.89,0,0,0-.73-1l-3.91.25a1,1,0,0,1,0-.48.89.89,0,0,1,.25-.45l1.4-2.18,3.17-1.84,3.4,1.5s.11.34,1.67-.44a3.67,3.67,0,0,1,3.12.05L71,30.71q0,2.26.09,4.59a15.3,15.3,0,0,0,.73-2.24l.06-.28-.09-.08a.73.73,0,0,1-.23-.6.62.62,0,0,1,.29-.4.58.58,0,0,1,.21-.07c0-.36.06-.69.07-1a.71.71,0,0,1-.38-.15.44.44,0,0,1-.14-.3.43.43,0,0,1,.16-.3.62.62,0,0,1,.35-.18c0-.21,0-.38,0-.53s0-.45-.08-.9H71.7a1.47,1.47,0,0,1-.53-.15.77.77,0,0,1,0-.44,1,1,0,0,1,.69-.69c-.53-2.79-2-7.53-6.23-10.62a22,22,0,0,0-7.24-3.17c-4.85-1.34-7.19-.95-14.14-1.28-2.05-.1-4.09-.13-6.14-.13a17.64,17.64,0,0,1,.8,4.58c0,.44.07,1,.16,2,0,.47.09.93.17,1.54.11.85.15,1,.21,1.63.15,1.55,0,1.78-.13,1.88s-.74,0-.79,0c-.63-.27-1-1.11-1.34-4.13-.12-1.14-.22-2.45-.45-4.68a5.54,5.54,0,0,0-.94-2.78H34.63a13.8,13.8,0,0,0,0,1.68,26.06,26.06,0,0,0,.75,6.06c.14.55.66,2.48.13,3.25a.94.94,0,0,1-.55.42,1,1,0,0,1-.79-.21,1.48,1.48,0,0,1-.36-.4c-.89-1.55-.68-7.91-.68-7.91a9.08,9.08,0,0,1,.2-2.86l-2.82.06A15.67,15.67,0,0,1,30.89,14c.27,2.12.37,3.79.42,4.64.06,1,.18,2.54.38,4.38a1.73,1.73,0,0,1-1-.16c-.78-.43-.91-1.5-1.08-3.18a39.82,39.82,0,0,0-.84-6.18A14.37,14.37,0,0,0,28.25,12l-1.13,0a5.54,5.54,0,0,0-.19,1.21,9.82,9.82,0,0,0,.12,1.92c.09.76.2,1.31.21,1.38a40.3,40.3,0,0,1,.29,6.43,1.35,1.35,0,0,1-.83-.08,1.58,1.58,0,0,1-.59-.55c-.39-.57-.25-1.07-.33-2.25A17.58,17.58,0,0,0,25.51,18a9.28,9.28,0,0,1-.25-1.63A6.17,6.17,0,0,1,25.34,15a25.83,25.83,0,0,0,.22-3l-2,.05a17.51,17.51,0,0,1,.7,3.54c.35,3.37.56,6.48.63,7.56A1.92,1.92,0,0,1,23.71,23a2.23,2.23,0,0,1-1-1.44c-.56-2-.23-3.75-.5-5.89a11.34,11.34,0,0,0-1-3.54l-1.17,0,0,.1A15,15,0,0,0,20.37,17a19.5,19.5,0,0,1,.71,3.71,14,14,0,0,1,0,1.76c-.29.33-.71.7-1.12.62-.91-.16-1.19-2.38-1.38-3.88A23.32,23.32,0,0,1,18.53,14,18.39,18.39,0,0,1,19,12.13h-.69a1.18,1.18,0,0,0-.84.28,1.49,1.49,0,0,0-.22,1.23c.17,1.1.46,8.85.83,20,.17,3.73.27,7.6.28,11.58,0,8-.53,11.52-.87,21.69l1.2.13.24-2L20.29,65l.43-1.93,3.12-.22-.06-1.62,4-.19L23,60.62a1.12,1.12,0,0,1,.9-.79L23,58.53l4.66,0c0-.42.07-.72.1-.92a.54.54,0,0,1,.06-.18.73.73,0,0,1,.65-.25,2.56,2.56,0,0,1,.19.46,3.17,3.17,0,0,1,.12.83l4.06.06.05,1.05-.5.23.5.89L32,63.29a11.24,11.24,0,0,0,3.4.17l.36,1.86,1.35.19.51,2.07,1,.22.71,2.34,1.35.23c.24.83.48,1.66.71,2.5l1.34,0,.44,2.7,1.51.11c.27.82.53,1.64.8,2.47l1.21.75c8.95-.28,15.59-1.33,20.59-5.78a19,19,0,0,0,3.28-3.85A21.52,21.52,0,0,0,72.75,64c-.14-.57-.22-1-.28-1.43a8.4,8.4,0,0,0-.52-2c-.14-.36-.35-.9-.52-.87s-.24,1.52-.23,1.66a10.74,10.74,0,0,0,.2,1.74A20.24,20.24,0,0,0,72,65.38l-2.31.33a27.15,27.15,0,0,1-.25-3.7c0-.87,0-1.69.11-2.45a1.75,1.75,0,0,1,.25-.89,2.15,2.15,0,0,1,1.36-.83,1.92,1.92,0,0,1,1.71.08,1,1,0,0,1,.28.34c.12.18.23.38.34.57A19.82,19.82,0,0,0,73.35,56.11Zm-18.23-11c0,1-.06,1.63-.53,2a1.8,1.8,0,0,1-1.31.19,1.64,1.64,0,0,1-.91-.42c-.21-.21-.37-.52-.37-1.92,0-1.24,0-2.26.4-2.38a.58.58,0,0,1,.5.21c.13.16.11.35.11.64,0,1.21.05,1.38.16,1.48a.4.4,0,0,0,.39.08c.23-.11.14-.57.31-1.56.06-.37.13-.62.33-.72a.46.46,0,0,1,.38,0C55.2,42.85,55.14,44.59,55.12,45.09Zm4.09.64a2.85,2.85,0,0,1-.86.92c-.18.12-1.26.83-2,.33a1.56,1.56,0,0,1-.55-1.17A16.08,16.08,0,0,1,55.71,44c0-1.24.13-1.51.33-1.61a.66.66,0,0,1,.61,0c.63.42.12,1.78.64,2a.6.6,0,0,0,.59-.1c.53-.44-.19-1.84.33-2.21a.53.53,0,0,1,.27-.1.81.81,0,0,1,.57.37A3.74,3.74,0,0,1,59.21,45.73ZM53.62,34.62c-.26,1.17-.51,2.53-.25,2.62,0,0,.08,0,.25-.14a14,14,0,0,0,1.44-1.53s.06-.07.09-.06,0,.42,0,.53a2.53,2.53,0,0,1-.09.45c-.24.77-1,1.37-.8,1.64,0,0,.07.09.22.11.93,0,1.71.1,2.27.17,2.23.25,2.56.57,2.66.83a.68.68,0,0,1-.09.62c-.15.19-.43.25-1.39.16s-1.32-.19-2.25-.3c-.74-.09-.65,0-1.09-.11-1.16-.18-1.77-.28-2.2-.7-.9-.89-.41-2.6-.3-2.95.19-.66.66-1.67,1.13-1.63C53.48,34.35,53.62,34.62,53.62,34.62ZM20.27,25.19l16.28.63,0-.05a.7.7,0,0,1,.44-.18,47.11,47.11,0,0,1,6.4-.29c4.17.1,6.49.71,7.83,1.89a6,6,0,0,1,1.16,1.42,5.28,5.28,0,0,1,.61,2.7,5.16,5.16,0,0,1-.89,3,5.32,5.32,0,0,1-1.57,1.42,8.09,8.09,0,0,1-2.94,1.08,25.12,25.12,0,0,1-5.51.38c-1,0-2.25-.07-3.72-.18-.29.38-.52.66-.64.79l-.16.15a2.4,2.4,0,0,1-.32.24,4.18,4.18,0,0,1-3,.42c-1-.24-2.74-1-2.81-2.37a2.63,2.63,0,0,1,1.12-2,4.26,4.26,0,0,1,3.56-.58c0-.15,0-.21,0-.21,0-.31,0-1,0-1.89l-11.5-.16c-1-.09-1.81-.14-2.37-.16s-.89,0-1.11-.37a.63.63,0,0,1-.09-.61c.22-.47,1.23-.43,1.62-.42,3.66.14,7.35-.17,11,.28a24.11,24.11,0,0,0,2.48.2q0-.33,0-.6c0-.11,0-.2,0-.29-2.28-.05-8.88-.21-11.59-.25-3.31-.06-3.7-.34-3.7-.34v-1.2c3-.05,6.07-.05,9.25,0,2.08,0,4.13.11,6.13.21,0-.17,0-.5,0-.95-5.37-.3-5.72-.3-5.72-.3a58.75,58.75,0,0,0-6.76-.17c-.81.07-2.57.27-3.3-.71A1.59,1.59,0,0,1,20.27,25.19ZM51.42,44.92c-.1,1.55,0,1.67-.22,2a1.36,1.36,0,0,1-1,.64A1.41,1.41,0,0,1,49,46.37a9.48,9.48,0,0,1-.33-2.7c0-.61.12-1,.36-1.09a.47.47,0,0,1,.28,0c.6.26.1,2.27.69,2.59a.22.22,0,0,0,.17,0c.19-.07.15-.53.17-1s.12-1.75.44-1.81c.15,0,.32.18.39.28a1,1,0,0,1,.22.61A10.82,10.82,0,0,1,51.42,44.92ZM20.77,38c1.12,0,2.25.08,3.39.14,3.43.18,6.74.46,9.93.8l2.42,1.64c-1-.05-4-.23-7.07-.48-.82-.07-2.43-.2-4-.37l-1.12-.11c-.86-.07-1.44-.09-2.29-.21-1-.14-1.22-.26-1.33-.44A1.14,1.14,0,0,1,20.77,38Zm-.16-2.83a2.88,2.88,0,0,1,1.31-2.37,3.41,3.41,0,0,1,1.64-.55,4.32,4.32,0,0,1,3.2.72,2.38,2.38,0,0,1,1.06,1.53,2.08,2.08,0,0,1-.34,1.31,4.3,4.3,0,0,1-5.29,1.34A2.82,2.82,0,0,1,20.61,35.18Zm15.53,7.36a.28.28,0,0,1-.2,0c-2.73-.15-5.48-.2-8.21-.43-1.49-.12-1.35,0-3.23-.16s-3.16-.34-4.09-.49l.21-1.3,15.91,1.17a9.36,9.36,0,0,1-.25,1A.37.37,0,0,1,36.14,42.54ZM54.5,58.07a6,6,0,0,1-.75,3,5.54,5.54,0,0,1-1.27,1.5,6.8,6.8,0,0,1-3.28,1.19,28.25,28.25,0,0,1-6.16.41c-1.37,0-3.2-.09-5.36-.29a1.37,1.37,0,0,1-.64-.35,1.55,1.55,0,0,1-.42-1c-.25-1.81-.27-2.45-.27-2.45,0-.4,0-1.34,0-2.63,0-.56,0-1.06,0-1.47.07-1.56.11-1.29.11-1.91a16,16,0,0,1,.17-2c0-.31.14-.36.19-.41A1.32,1.32,0,0,1,38,51.33c1.62-.06,3.88-.14,6.66-.19a17.44,17.44,0,0,1,5.51.65,6.22,6.22,0,0,1,1.88.9A6.05,6.05,0,0,1,53.94,55,6.47,6.47,0,0,1,54.5,58.07Zm6.63-7.19a.7.7,0,0,1,.23-.36.81.81,0,0,1,.51-.19,25.44,25.44,0,0,1,3,.29,13.61,13.61,0,0,0,2.65.13c.5,0,1,0,1.5,0,.83,0,1.17-.05,1.48.19a.92.92,0,0,1,.41.82.82.82,0,0,1-.37.48,2.27,2.27,0,0,1-.36.14s-6.46-.12-7.9-.45S61.13,50.88,61.13,50.88Zm4.77,2.9a.78.78,0,0,1,0-.29.77.77,0,0,1,.35-.35.84.84,0,0,1,.72.08c.53.32.14,1.06.52,2.81.08.38.2.83,0,1.13a.89.89,0,0,1-.52.26c-.83.18-2.49.2-2.94-.71a1.6,1.6,0,0,1-.1-.34,3.84,3.84,0,0,1-.08-1.43c.09-.66.2-1.53.73-1.73.21-.08.63-.11.77.09a.12.12,0,0,1,0,.08c.1.75.17,1.3.2,1.51a.32.32,0,0,0,.1.22s.13.08.19,0S65.91,54.09,65.9,53.78Zm-3.19,5.84a51.83,51.83,0,0,0-.48,5.79.78.78,0,0,1-.38.58c-.35.17-.76-.14-.86-.19a2,2,0,0,1-.75-2.09,27,27,0,0,1,.89-3.54c0-.11.2-.47,0-.64a.35.35,0,0,0-.3-.07.55.55,0,0,0-.34.37c-.25.6-1.15,4.63-1.15,4.63s-.29.86-1.28.17a1.38,1.38,0,0,1-.43-.54,1.72,1.72,0,0,1,0-1.21,16.71,16.71,0,0,1,1.21-3.72c.4-.79.62-1,.94-1.17a2.08,2.08,0,0,1,1.39,0c.5.12,1.17.28,1.42.81A1.24,1.24,0,0,1,62.71,59.62Zm.92-5.87c-.28,1.81-.18,2.24-.69,2.78a1.53,1.53,0,0,1-.48.37,1.85,1.85,0,0,1-1.34,0,1.77,1.77,0,0,1-1-.6A2.53,2.53,0,0,1,59.83,55a4.6,4.6,0,0,1,.24-.94c.22-.61.37-1,.74-1.15a.76.76,0,0,1,.89.25c.1.17,0,.31-.18.92s-.34,1.25-.11,1.39.48-.5.48-.5c.12-.37.21-.66.26-.8a.34.34,0,0,1,.08-.14l.09-.07c.58-.28,1.09-.61,1.26-.45S63.64,53.68,63.63,53.75Zm4.72,11.73a1.17,1.17,0,0,1-1.45,0c-.31-.27-.3-1.1-.27-2.76a4.53,4.53,0,0,0-.17-1.34c-.2-.72-.43-.84-.52-.87a.75.75,0,0,0-.71.16c-.19.18-.27.47-.1,2.11.08.82.12,1.23.14,1.34.13.66.3,1.07.09,1.4a.82.82,0,0,1-.44.31.6.6,0,0,1-.42,0c-.51-.17-.61-1.11-.69-2.66-.19-3.73.09-4.09.32-4.28a3.3,3.3,0,0,1,2-.48c.82,0,1.27-.06,1.63.21.57.42.52,1.26.54,3,0,.8,0,2,.13,3.52A.57.57,0,0,1,68.35,65.48Zm3.82-9.07a1.79,1.79,0,0,1-1.12.63,1.88,1.88,0,0,1-1.11,0c-.55-.2-.79-.71-1.1-1.37a4.41,4.41,0,0,1-.33-2,.59.59,0,0,1,.13-.36c.26-.3.83-.17.93-.14l.08.07c.42,1.1.71,1.85.72,1.93s0,0,0,.05.13,0,.16-.05.07-.32,0-.64-.11-.56-.14-.65c-.16-.6-.29-.78-.19-.93s.16-.11.37-.17a1.41,1.41,0,0,1,.79-.08c.32.11.34.56.54,1.64C72.23,55.83,72.39,56.07,72.17,56.41Z"/><path class="cls-2" d="M65.67,40.08a3.4,3.4,0,0,0-1.56,4.31,2.15,2.15,0,0,0,1.38,1.1,1.25,1.25,0,0,0,.92-.12,1.31,1.31,0,0,0,.53-1l-.41-.29a1,1,0,0,1-.39.38,1.06,1.06,0,0,1-.82,0,1.2,1.2,0,0,1-.62-.82,1.71,1.71,0,0,1,0-.94,2.17,2.17,0,0,1,1.09-1.46,2.12,2.12,0,0,1,1.3-.1h.05l.52-.55c.15-.15.28-.3.41-.45A2.85,2.85,0,0,0,65.67,40.08Z"/><path class="cls-2" d="M68.77,46a2.56,2.56,0,0,1-.28.3,2.63,2.63,0,0,1-.75.45,4.07,4.07,0,0,1-2.76.36,3,3,0,0,1-1.73-1,3.38,3.38,0,0,1-.56-1.35,8.08,8.08,0,0,1-.21-2.12A4.9,4.9,0,0,1,63,40.08a3.68,3.68,0,0,1,1-1.14c1-.82,1.66-.64,3.51-1.53A3.2,3.2,0,0,0,69.18,36c0-.05.22-.51.08-.62s-.17-.13-1.14.59h0a9.69,9.69,0,0,1-1.28.75c-1.49.74-2,.53-3.17,1.25A6.08,6.08,0,0,0,62,39.47a2.12,2.12,0,0,0-.47.83,2.94,2.94,0,0,0,0,1c0,.3,0,.17,0,1.34s0,1.87,0,2.06a4.53,4.53,0,0,0,1.2,2.64,4.33,4.33,0,0,0,2.39,1.25,4.83,4.83,0,0,0,3.59-.78,4.3,4.3,0,0,0,1-.85A14.06,14.06,0,0,0,68.77,46Z"/><path class="cls-2" d="M36.74,36.57a1.47,1.47,0,0,1-.38-.87c-.07-.54-.12-1-.15-1.28a3.4,3.4,0,0,0-.49-.07,2.47,2.47,0,0,0-2,.44,1.7,1.7,0,0,0-.53,1.53,1.74,1.74,0,0,0,.64,1,2.36,2.36,0,0,0,1.45.53,2.39,2.39,0,0,0,1.17-.28,2.24,2.24,0,0,0,.74-.67A1.18,1.18,0,0,1,36.74,36.57Zm-1.13,0a1,1,0,0,1-1.14-.14.79.79,0,0,1,0-.75.67.67,0,0,1,.34-.26c.41-.15,1,.06,1.13.48A.71.71,0,0,1,35.61,36.57Z"/><path class="cls-2" d="M26.65,34.65c-.07-.41-.46-.66-.78-.86a2.79,2.79,0,0,0-1.12-.39,2.38,2.38,0,0,0-1.81.34A1.64,1.64,0,0,0,22.25,35a1.43,1.43,0,0,0,.39.89,2,2,0,0,0,1.56.52,2.62,2.62,0,0,0,1.67-.5C26.07,35.78,26.75,35.25,26.65,34.65Zm-1.87.64a.94.94,0,0,1-1.14-.08.61.61,0,0,1-.08-.56.74.74,0,0,1,.5-.42.94.94,0,0,1,.72.06c.06,0,.41.22.4.52S24.88,35.24,24.78,35.29Z"/><path class="cls-2" d="M69.76,30.62a2.57,2.57,0,0,0-1.1-1.3,3.48,3.48,0,0,0-4,.57,2.88,2.88,0,0,0-1,2.48,2.52,2.52,0,0,0,1.13,1.46,3.4,3.4,0,0,0,2.69.35A3.15,3.15,0,0,0,69.33,33,2.76,2.76,0,0,0,69.76,30.62Zm-1.75,2a1.48,1.48,0,0,1-1,.4,1.59,1.59,0,0,1-1.32-.53,1.41,1.41,0,0,1-.34-1,1.5,1.5,0,0,1,1-1.25,1.62,1.62,0,0,1,1.67.29,1.43,1.43,0,0,1,.38.71A1.5,1.5,0,0,1,68,32.65Z"/></g></g></svg>