<?xml version="1.0" encoding="utf-8"?>
<!-- Generator: Adobe Illustrator 25.3.0, SVG Export Plug-In . SVG Version: 6.00 Build 0)  -->
<svg version="1.1" id="Capa_2" xmlns="http://www.w3.org/2000/svg" xmlns:xlink="http://www.w3.org/1999/xlink" x="0px" y="0px"
	 viewBox="0 0 64 64" style="enable-background:new 0 0 64 64;" xml:space="preserve">
<style type="text/css">
	.st0{fill:none;stroke:#1D1D1B;stroke-width:2;stroke-miterlimit:10;}
	.st1{fill:none;stroke:#1D1D1B;stroke-width:2;stroke-linejoin:round;stroke-miterlimit:10;}
</style>
<path class="st0" d="M44,55.8H19.9c-6.6,0-12-5.4-12-12V19.7c0-6.6,5.4-12,12-12H44c6.6,0,12,5.4,12,12v24.2
	C56,50.4,50.6,55.8,44,55.8z"/>
<path class="st1" d="M31.9,55.8V38.1h-6V30H32c0-2.4,0-4.8-0.1-7.2c0-0.5,0-1,0-1.4c0-0.6,0.3-2.5,1.7-3.9c1.7-1.6,3.9-1.6,4.3-1.6
	c0.8,0,1.5,0,2.2,0c2.2,0,4.4,0,6.7,0c0,2.7,0,5.3,0,8c-0.7,0-1.4,0-2.1,0c-1,0-1.9,0-2.9,0c-0.1,0-0.8-0.1-1.4,0.5
	c-0.4,0.4-0.5,0.9-0.6,1.1c0,1.5,0,3,0,4.5c2.3,0,4.6,0,7,0v8.1c-2.3,0-4.6,0-7,0c0,5.8,0,11.6,0,17.4"/>
</svg>
