<?xml version="1.0" encoding="utf-8"?>
<!-- Generator: Adobe Illustrator 25.3.0, SVG Export Plug-In . SVG Version: 6.00 Build 0)  -->
<svg version="1.1" id="Capa_1" xmlns="http://www.w3.org/2000/svg" xmlns:xlink="http://www.w3.org/1999/xlink" x="0px" y="0px"
	 viewBox="0 0 64 64" style="enable-background:new 0 0 64 64;" xml:space="preserve">
<style type="text/css">
	.st0{fill:none;stroke:#1D1D1B;stroke-width:2;stroke-miterlimit:10;}
</style>
<path class="st0" d="M44,57H20c-7.2,0-13-5.8-13-13V20c0-7.2,5.8-13,13-13h24c7.2,0,13,5.8,13,13v24C57,51.2,51.2,57,44,57z"/>
<path class="st0" d="M32,43.7c-6.4,0-11.7-5.2-11.7-11.7S25.6,20.3,32,20.3S43.7,25.6,43.7,32c0,0,0,0,0,0
	C43.7,38.4,38.4,43.7,32,43.7z"/>
<path class="st0" d="M44.5,21c-1.9,0-3.5-1.6-3.5-3.5s1.6-3.5,3.5-3.5s3.5,1.6,3.5,3.5S46.4,21,44.5,21z"/>
</svg>
