<?xml version="1.0" encoding="utf-8"?>
<!-- Generator: Adobe Illustrator 25.3.0, SVG Export Plug-In . SVG Version: 6.00 Build 0)  -->
<svg version="1.1" id="Capa_1" xmlns="http://www.w3.org/2000/svg" xmlns:xlink="http://www.w3.org/1999/xlink" x="0px" y="0px"
	 viewBox="0 0 64 64" style="enable-background:new 0 0 64 64;" xml:space="preserve">
<style type="text/css">
	.st0{fill:none;stroke:#1D1E1B;stroke-width:2;stroke-miterlimit:10;}
	.st1{fill:#1D1D1B;}
	.st2{fill:none;stroke:#1D1D1B;stroke-linecap:round;stroke-linejoin:round;stroke-miterlimit:10;}
	.st3{fill:none;stroke:#1D1D1B;stroke-width:2;stroke-miterlimit:10;}
</style>
<path class="st0" d="M21.3,28.9c-2.7,0-4.9,2.2-4.9,4.9s2.2,4.9,4.9,4.9s4.9-2.2,4.9-4.9C26.1,31.1,23.9,28.9,21.3,28.9L21.3,28.9z"
	/>
<circle class="st1" cx="21.3" cy="33.8" r="2.4"/>
<path class="st0" d="M40.7,28.9c-2.7,0-4.9,2.2-4.9,4.9s2.2,4.9,4.9,4.9s4.9-2.2,4.9-4.9C45.6,31.1,43.4,28.9,40.7,28.9z"/>
<circle class="st1" cx="40.7" cy="33.8" r="2.4"/>
<path class="st2" d="M47.6,26.9c1-0.9,1.9-1.9,2.9-2.8c-1.9,0-3.9,0-5.8,0c-3.3-2.6-8.7-4.8-13.7-4.8c-5,0-10.4,2.2-13.6,4.8h-5.8
	l2.9,2.8c-2.1,2.1-3.3,5.2-2.7,8.5c0.7,4.1,4.1,7.5,8.2,8c3,0.4,5.8-0.5,7.8-2.3l3.3,2.4l3.3-2.4c0.7,0.6,1.9,1.5,3.7,2
	c0,0,1.4,0.4,2.8,0.4c5.4,0,9.7-4.4,9.7-9.7c0-1.2-0.3-2.3-0.3-2.5C49.5,29,48.3,27.6,47.6,26.9z M39.5,24.1
	c-4.6,0.6-8.2,4.4-8.5,9.1c-0.3-4.7-3.9-8.5-8.5-9.1c2.3-1.7,5.3-2.5,8.5-2.5S37.2,22.4,39.5,24.1z M21.3,41.1
	c-4.1,0-7.4-3.3-7.3-7.4c0.1-3.9,3.3-7.2,7.2-7.2c4.1-0.1,7.4,3.2,7.4,7.3C28.6,37.8,25.3,41.1,21.3,41.1z M40.7,41.1
	c-4.1,0-7.4-3.3-7.3-7.4c0.1-3.9,3.3-7.2,7.2-7.2c4.1-0.1,7.4,3.2,7.4,7.3C48,37.8,44.8,41.1,40.7,41.1z"/>
<path class="st3" d="M44,57H20c-7.2,0-13-5.8-13-13V20c0-7.2,5.8-13,13-13h24c7.2,0,13,5.8,13,13v24C57,51.2,51.2,57,44,57z"/>
</svg>
