<svg id="Capa_1" data-name="Capa 1" xmlns="http://www.w3.org/2000/svg" viewBox="0 0 58.72 37.2"><defs><style>.cls-1,.cls-3{fill:none;stroke-width:2px;}.cls-1{stroke:#1d1e1b;stroke-miterlimit:10;}.cls-2{fill:#1d1d1b;}.cls-3{stroke:#1d1d1b;stroke-linecap:round;stroke-linejoin:round;}</style></defs><path class="cls-1" d="M18.37,24.78a8.35,8.35,0,1,0,8.35,8.35,8.59,8.59,0,0,0-8.35-8.35Z" transform="translate(-3.26 -11.04)"/><circle class="cls-2" cx="15.11" cy="22.09" r="4.47"/><path class="cls-1" d="M46.59,24.78a8.35,8.35,0,1,0,8.34,8.35A8.36,8.36,0,0,0,46.59,24.78Z" transform="translate(-3.26 -11.04)"/><path class="cls-3" d="M56.62,23.09c1.45-1.31,2.76-2.76,4.22-4.07H52.4a34.65,34.65,0,0,0-19.92-7A33.83,33.83,0,0,0,12.7,19H4.26l4.22,4.07A14,14,0,0,0,4.55,35.45,14.21,14.21,0,0,0,16.48,47.09a14,14,0,0,0,11.34-3.35l4.8,3.49,4.8-3.49a13.71,13.71,0,0,0,5.38,2.91,17.12,17.12,0,0,0,4.08.58A14.11,14.11,0,0,0,61,33.13a23.88,23.88,0,0,0-.43-3.64A16.8,16.8,0,0,0,56.62,23.09ZM44.84,19A14.26,14.26,0,0,0,32.48,32.25,14.27,14.27,0,0,0,20.12,19a20.67,20.67,0,0,1,12.36-3.64A20.69,20.69,0,0,1,44.84,19Z" transform="translate(-3.26 -11.04)"/><circle class="cls-2" cx="43.32" cy="22.09" r="4.47"/></svg>